<svg xmlns="http://www.w3.org/2000/svg" viewBox="0 0 64 64">
  <!-- OP-AEL — Alkaline Electrolyzer: liquid KOH cells, gas bubbles. Generated by icons/make_icons.py (P4) — do not hand-edit. -->
  <path d="M2 32 L13 32" fill="none" stroke="#1B3A5C" stroke-width="2.2" stroke-linecap="round"/><rect x="13" y="10" width="38" height="30" rx="3" fill="#FBDCDA" stroke="#1B3A5C" stroke-width="2.2" stroke-linejoin="round"/><path d="M21 12 L21 38" fill="none" stroke="#1B3A5C" stroke-width="1.5" stroke-linecap="round"/><path d="M28 12 L28 38" fill="none" stroke="#1B3A5C" stroke-width="1.5" stroke-linecap="round"/><path d="M35 12 L35 38" fill="none" stroke="#1B3A5C" stroke-width="1.5" stroke-linecap="round"/><path d="M42 12 L42 38" fill="none" stroke="#1B3A5C" stroke-width="1.5" stroke-linecap="round"/><rect x="13" y="10" width="5" height="30" rx="0" fill="#E5564E" stroke="#1B3A5C" stroke-width="1.5" stroke-linejoin="round"/><rect x="46" y="10" width="5" height="30" rx="0" fill="#E5564E" stroke="#1B3A5C" stroke-width="1.5" stroke-linejoin="round"/><path d="M20 10 L20 2" fill="none" stroke="#E5564E" stroke-width="1.5" stroke-linecap="round"/><path d="M20 2 L21.795416432311868 4.403430846640801" fill="none" stroke="#E5564E" stroke-width="1.5" stroke-linecap="round"/><path d="M20 2 L18.20458356768813 4.403430846640801" fill="none" stroke="#E5564E" stroke-width="1.5" stroke-linecap="round"/><path d="M44 10 L44 2" fill="none" stroke="#E5564E" stroke-width="1.5" stroke-linecap="round"/><path d="M44 2 L45.79541643231187 4.403430846640801" fill="none" stroke="#E5564E" stroke-width="1.5" stroke-linecap="round"/><path d="M44 2 L42.20458356768813 4.403430846640801" fill="none" stroke="#E5564E" stroke-width="1.5" stroke-linecap="round"/><circle cx="25" cy="20" r="2" fill="#FFFFFF" stroke="#1B3A5C" stroke-width="1.2"/><circle cx="31" cy="26" r="2" fill="#FFFFFF" stroke="#1B3A5C" stroke-width="1.2"/><circle cx="38" cy="18" r="2" fill="#FFFFFF" stroke="#1B3A5C" stroke-width="1.2"/><circle cx="33" cy="33" r="2" fill="#FFFFFF" stroke="#1B3A5C" stroke-width="1.2"/><circle cx="25" cy="31" r="2" fill="#FFFFFF" stroke="#1B3A5C" stroke-width="1.2"/>
  <text x="32" y="58" text-anchor="middle" fill="#1B3A5C" font-family="Segoe UI, Arial, sans-serif" font-size="15" font-weight="700" letter-spacing="0.4">AEL</text>
</svg>
