<svg xmlns="http://www.w3.org/2000/svg" viewBox="0 0 64 64">
<g stroke="#1B3A5C" stroke-width="2.4" stroke-linejoin="round" stroke-linecap="round">
<path d="M2 40 H8" fill="none"/><path d="M56 40 H62" fill="none"/>
<path d="M20 14 v-6" fill="none"/><path d="M44 14 v-6" fill="none"/>
<rect x="8" y="14" width="48" height="38" rx="7" fill="#BFE3F5"/>
<path d="M8 21 a7 7 0 0 1 7-7 h17 v38 H15 a7 7 0 0 1 -7-7 z" fill="#29ABE2"/>
<path d="M32 14 v38" fill="none"/>
<rect x="8" y="14" width="48" height="38" rx="7" fill="none"/>
</g>
<g fill="#FFFFFF" stroke="#1B3A5C" stroke-width="1.4">
<circle cx="17" cy="26" r="2.2"/><circle cx="24" cy="34" r="2.2"/><circle cx="17" cy="42" r="2.2"/>
<circle cx="47" cy="26" r="2.2"/><circle cx="40" cy="34" r="2.2"/><circle cx="47" cy="42" r="2.2"/>
</g>
<g stroke="#1B3A5C" stroke-width="2" stroke-linecap="round" fill="none">
<path d="M17.5 5 v5 M15 7.5 h5"/><path d="M41.5 7.5 h5"/>
</g>
</svg>
