<svg xmlns="http://www.w3.org/2000/svg" viewBox="0 0 64 64">
<g stroke="#1B3A5C" stroke-width="2.4" stroke-linejoin="round" stroke-linecap="round">
<path d="M2 32 H8" fill="none"/><path d="M56 32 H62" fill="none"/>
<rect x="8" y="10" width="48" height="12" rx="5" fill="#29ABE2"/>
<rect x="8" y="42" width="48" height="12" rx="5" fill="#29ABE2"/>
<rect x="8" y="24" width="48" height="16" fill="#BFE3F5" stroke="none"/>
<path d="M8 24 h48 M8 40 h48" fill="none"/>
<rect x="8" y="10" width="48" height="12" rx="5" fill="none"/>
<rect x="8" y="42" width="48" height="12" rx="5" fill="none"/>
</g>
<g fill="#1B3A5C">
<circle cx="18" cy="26.5" r="1.7"/><circle cx="32" cy="26.5" r="1.7"/><circle cx="46" cy="26.5" r="1.7"/>
<circle cx="25" cy="37.5" r="1.7"/><circle cx="39" cy="37.5" r="1.7"/>
</g>
<g stroke="#FFFFFF" stroke-width="1.8" stroke-linecap="round" fill="none">
<path d="M14 16 h6 M17 13 v6"/>
<path d="M42 48 h8"/>
</g>
</svg>
