<svg xmlns="http://www.w3.org/2000/svg" viewBox="0 0 64 64">
  <!-- OP-CRYST — Crystallizer: solubility-limited crystal yield. Generated by icons/make_icons.py (P4) — do not hand-edit. -->
  <path d="M2 14 L14 14" fill="none" stroke="#1B3A5C" stroke-width="2.2" stroke-linecap="round"/><path d="M50 14 L62 14" fill="none" stroke="#1B3A5C" stroke-width="2.2" stroke-linecap="round"/><path d="M32 46 L32 50" fill="none" stroke="#1B3A5C" stroke-width="2.2" stroke-linecap="round"/><path d="M14 9 h36 v15 l-18 20 -18 -20 z" fill="#D0EFE9" stroke="#1B3A5C" stroke-width="2.2" stroke-linejoin="round" stroke-linecap="round"/><path d="M25 16.4 L28.6 20 L25 23.6 L21.4 20 z" fill="#FFFFFF" stroke="#1B3A5C" stroke-width="1.3" stroke-linejoin="round" stroke-linecap="round"/><path d="M37 15.0 L40.0 18 L37 21.0 L34.0 18 z" fill="#FFFFFF" stroke="#1B3A5C" stroke-width="1.3" stroke-linejoin="round" stroke-linecap="round"/><path d="M31 23.2 L34.8 27 L31 30.8 L27.2 27 z" fill="#FFFFFF" stroke="#1B3A5C" stroke-width="1.3" stroke-linejoin="round" stroke-linecap="round"/><path d="M39 23.4 L41.6 26 L39 28.6 L36.4 26 z" fill="#FFFFFF" stroke="#1B3A5C" stroke-width="1.3" stroke-linejoin="round" stroke-linecap="round"/><path d="M30 12.6 L32.4 15 L30 17.4 L27.6 15 z" fill="#FFFFFF" stroke="#1B3A5C" stroke-width="1.3" stroke-linejoin="round" stroke-linecap="round"/>
  <text x="32" y="58" text-anchor="middle" fill="#1B3A5C" font-family="Segoe UI, Arial, sans-serif" font-size="11" font-weight="700" letter-spacing="0.4">CRYST</text>
</svg>
