<svg xmlns="http://www.w3.org/2000/svg" viewBox="0 0 64 64">
  <!-- OP-CHLORALK — Chlor-Alkali cell: Cl2 and H2 evolve either side. Generated by icons/make_icons.py (P4) — do not hand-edit. -->
  <path d="M2 30 L13 30" fill="none" stroke="#1B3A5C" stroke-width="2.2" stroke-linecap="round"/><path d="M51 30 L62 30" fill="none" stroke="#1B3A5C" stroke-width="2.2" stroke-linecap="round"/><rect x="13" y="12" width="38" height="30" rx="3" fill="#E3DBF8" stroke="#1B3A5C" stroke-width="2.2" stroke-linejoin="round"/><path d="M32 12 L32 42" fill="none" stroke="#7C5CD6" stroke-width="2.4" stroke-linecap="round"/><circle cx="20" cy="30" r="2" fill="#FFFFFF" stroke="#1B3A5C" stroke-width="1.2"/><circle cx="24" cy="24" r="2" fill="#FFFFFF" stroke="#1B3A5C" stroke-width="1.2"/><circle cx="19" cy="20" r="2" fill="#FFFFFF" stroke="#1B3A5C" stroke-width="1.2"/><circle cx="23" cy="16" r="2" fill="#FFFFFF" stroke="#1B3A5C" stroke-width="1.2"/><circle cx="40" cy="30" r="2" fill="#FFFFFF" stroke="#1B3A5C" stroke-width="1.2"/><circle cx="44" cy="24" r="2" fill="#FFFFFF" stroke="#1B3A5C" stroke-width="1.2"/><circle cx="39" cy="20" r="2" fill="#FFFFFF" stroke="#1B3A5C" stroke-width="1.2"/><circle cx="43" cy="16" r="2" fill="#FFFFFF" stroke="#1B3A5C" stroke-width="1.2"/><path d="M20 12 L20 4" fill="none" stroke="#7C5CD6" stroke-width="1.5" stroke-linecap="round"/><path d="M20 4 L21.55602757467029 6.082973400422028" fill="none" stroke="#7C5CD6" stroke-width="1.5" stroke-linecap="round"/><path d="M20 4 L18.44397242532971 6.082973400422027" fill="none" stroke="#7C5CD6" stroke-width="1.5" stroke-linecap="round"/><path d="M44 12 L44 4" fill="none" stroke="#7C5CD6" stroke-width="1.5" stroke-linecap="round"/><path d="M44 4 L45.55602757467029 6.082973400422028" fill="none" stroke="#7C5CD6" stroke-width="1.5" stroke-linecap="round"/><path d="M44 4 L42.44397242532971 6.082973400422027" fill="none" stroke="#7C5CD6" stroke-width="1.5" stroke-linecap="round"/>
  <text x="32" y="58" text-anchor="middle" fill="#1B3A5C" font-family="Segoe UI, Arial, sans-serif" font-size="11" font-weight="700" letter-spacing="0.4">CHLOR</text>
</svg>
