<svg xmlns="http://www.w3.org/2000/svg" viewBox="0 0 64 64">
  <!-- OP-ED — Electrodialysis: ions driven through membrane pairs. Generated by icons/make_icons.py (P4) — do not hand-edit. -->
  <path d="M2 14 L13 14" fill="none" stroke="#1B3A5C" stroke-width="2.2" stroke-linecap="round"/><path d="M2 34 L13 34" fill="none" stroke="#1B3A5C" stroke-width="2.2" stroke-linecap="round"/><path d="M51 14 L62 14" fill="none" stroke="#1B3A5C" stroke-width="2.2" stroke-linecap="round"/><path d="M51 34 L62 34" fill="none" stroke="#1B3A5C" stroke-width="2.2" stroke-linecap="round"/><rect x="13" y="8" width="38" height="32" rx="3" fill="#E3DBF8" stroke="#1B3A5C" stroke-width="2.2" stroke-linejoin="round"/><rect x="13" y="8" width="5" height="32" rx="0" fill="#7C5CD6" stroke="#1B3A5C" stroke-width="1.5" stroke-linejoin="round"/><rect x="46" y="8" width="5" height="32" rx="0" fill="#7C5CD6" stroke="#1B3A5C" stroke-width="1.5" stroke-linejoin="round"/><path d="M25 10 L25 38" fill="none" stroke="#1B3A5C" stroke-width="1.5" stroke-linecap="round"/><path d="M32 10 L32 38" fill="none" stroke="#1B3A5C" stroke-width="1.5" stroke-linecap="round"/><path d="M39 10 L39 38" fill="none" stroke="#1B3A5C" stroke-width="1.5" stroke-linecap="round"/><path d="M13.5 20 h4 M15.5 18 v4" fill="none" stroke="#FFFFFF" stroke-width="1.5" stroke-linejoin="round" stroke-linecap="round"/><path d="M46.5 20 h4" fill="none" stroke="#FFFFFF" stroke-width="1.5" stroke-linejoin="round" stroke-linecap="round"/><circle cx="28.5" cy="17" r="1.5" fill="#1B3A5C"/><circle cx="35.5" cy="24" r="1.5" fill="#1B3A5C"/><circle cx="28.5" cy="31" r="1.5" fill="#1B3A5C"/>
  <text x="32" y="58" text-anchor="middle" fill="#1B3A5C" font-family="Segoe UI, Arial, sans-serif" font-size="15" font-weight="700" letter-spacing="0.4">ED</text>
</svg>
