<svg xmlns="http://www.w3.org/2000/svg" viewBox="0 0 64 64">
  <!-- OP-EVAPPOND — Solar Evaporation Pond: sun-driven brine concentration. Generated by icons/make_icons.py (P4) — do not hand-edit. -->
  <path d="M2 30 L12 30" fill="none" stroke="#1B3A5C" stroke-width="2.2" stroke-linecap="round"/><path d="M52 36 L62 36" fill="none" stroke="#1B3A5C" stroke-width="2.2" stroke-linecap="round"/><circle cx="13" cy="10" r="5" fill="#F2A03D" stroke="#1B3A5C" stroke-width="1.5"/><path d="M13.0 3.88 L13 1.5" fill="none" stroke="#1B3A5C" stroke-width="1.5" stroke-linecap="round"/><path d="M17.32 5.68 L19 4" fill="none" stroke="#1B3A5C" stroke-width="1.5" stroke-linecap="round"/><path d="M19.12 10.0 L21.5 10" fill="none" stroke="#1B3A5C" stroke-width="1.5" stroke-linecap="round"/><path d="M6.88 10.0 L4.5 10" fill="none" stroke="#1B3A5C" stroke-width="1.5" stroke-linecap="round"/><path d="M8.68 5.68 L7 4" fill="none" stroke="#1B3A5C" stroke-width="1.5" stroke-linecap="round"/><path d="M12 26 h40 l-6 16 h-28 z" fill="#FCE7CC" stroke="#1B3A5C" stroke-width="2.2" stroke-linejoin="round" stroke-linecap="round"/><path d="M14 26 L50 26" fill="none" stroke="#1B3A5C" stroke-width="1.5" stroke-linecap="round"/><path d="M26 24 L26 16" fill="none" stroke="#F2A03D" stroke-width="1.5" stroke-linecap="round"/><path d="M26 16 L27.55602757467029 18.082973400422027" fill="none" stroke="#F2A03D" stroke-width="1.5" stroke-linecap="round"/><path d="M26 16 L24.44397242532971 18.082973400422027" fill="none" stroke="#F2A03D" stroke-width="1.5" stroke-linecap="round"/><path d="M34 24 L34 16" fill="none" stroke="#F2A03D" stroke-width="1.5" stroke-linecap="round"/><path d="M34 16 L35.55602757467029 18.082973400422027" fill="none" stroke="#F2A03D" stroke-width="1.5" stroke-linecap="round"/><path d="M34 16 L32.44397242532971 18.082973400422027" fill="none" stroke="#F2A03D" stroke-width="1.5" stroke-linecap="round"/><path d="M42 24 L42 16" fill="none" stroke="#F2A03D" stroke-width="1.5" stroke-linecap="round"/><path d="M42 16 L43.55602757467029 18.082973400422027" fill="none" stroke="#F2A03D" stroke-width="1.5" stroke-linecap="round"/><path d="M42 16 L40.44397242532971 18.082973400422027" fill="none" stroke="#F2A03D" stroke-width="1.5" stroke-linecap="round"/><circle cx="24" cy="36" r="1.6" fill="#1B3A5C"/><circle cx="32" cy="38" r="1.6" fill="#1B3A5C"/><circle cx="40" cy="36" r="1.6" fill="#1B3A5C"/>
  <text x="32" y="58" text-anchor="middle" fill="#1B3A5C" font-family="Segoe UI, Arial, sans-serif" font-size="13" font-weight="700" letter-spacing="0.4">EVAP</text>
</svg>
