<svg xmlns="http://www.w3.org/2000/svg" viewBox="0 0 64 64">
<g stroke="#1B3A5C" stroke-width="2.4" stroke-linejoin="round" stroke-linecap="round">
<path d="M2 24 H8" fill="none"/><path d="M2 40 H8" fill="none"/>
<path d="M56 24 H62" fill="none"/><path d="M56 40 H62" fill="none"/>
<rect x="8" y="14" width="48" height="36" rx="7" fill="#BFE3F5"/>
<path d="M8 21 a7 7 0 0 1 7-7 h1 v36 h-1 a7 7 0 0 1 -7-7 z" fill="#29ABE2"/>
<path d="M48 14 h1 a7 7 0 0 1 7 7 v22 a7 7 0 0 1 -7 7 h-1 z" fill="#29ABE2"/>
<path d="M26 14 v36 M38 14 v36" fill="none" stroke-dasharray="4 3"/>
<rect x="8" y="14" width="48" height="36" rx="7" fill="none"/>
</g>
<g fill="#FFFFFF" stroke="#1B3A5C" stroke-width="1.4">
<circle cx="32" cy="23" r="2.6"/><circle cx="32" cy="32" r="2.6"/><circle cx="32" cy="41" r="2.6"/>
</g>
<g fill="#29ABE2" stroke="#1B3A5C" stroke-width="1.4">
<circle cx="20" cy="28" r="2.2"/><circle cx="44" cy="36" r="2.2"/>
</g>
<g stroke="#1B3A5C" stroke-width="2" stroke-linecap="round" fill="none">
<path d="M19 6 v5 M16.5 8.5 h5"/><path d="M42.5 8.5 h5"/>
</g>
</svg>
