<svg xmlns="http://www.w3.org/2000/svg" viewBox="0 0 64 64">
<g stroke="#1B3A5C" stroke-width="2.4" stroke-linejoin="round" stroke-linecap="round">
<path d="M2 16 H10 v4" fill="none"/><path d="M54 48 H62" fill="none"/>
<rect x="20" y="8" width="24" height="48" rx="8" fill="#BFE3F5"/>
<path d="M20 16 a8 8 0 0 1 8-8 h8 a8 8 0 0 1 8 8 v3 H20 z" fill="#29ABE2"/>
<rect x="20" y="8" width="24" height="48" rx="8" fill="none"/>
</g>
<g fill="#1B3A5C">
<circle cx="27" cy="27" r="2.5"/><circle cx="36.5" cy="25" r="2.5"/><circle cx="31.5" cy="33" r="2.5"/>
<circle cx="26.5" cy="41" r="2.5"/><circle cx="37" cy="39" r="2.5"/><circle cx="31.5" cy="47" r="2.5"/>
<circle cx="26.5" cy="51.5" r="2"/><circle cx="37" cy="49.5" r="2"/>
</g>
<g stroke="#FFFFFF" stroke-width="1.6" stroke-linecap="round" fill="none">
<path d="M25 12.6 h8"/>
</g>
</svg>
