<svg xmlns="http://www.w3.org/2000/svg" viewBox="0 0 64 64">
  <!-- OP-GAC — Activated Carbon: adsorption on a granular carbon bed. Generated by icons/make_icons.py (P4) — do not hand-edit. -->
  <path d="M32 2 L32 6" fill="none" stroke="#1B3A5C" stroke-width="2.2" stroke-linecap="round"/><path d="M2 24 L20 24" fill="none" stroke="#1B3A5C" stroke-width="2.2" stroke-linecap="round"/><path d="M44 24 L62 24" fill="none" stroke="#1B3A5C" stroke-width="2.2" stroke-linecap="round"/><path d="M32 42 L32 46" fill="none" stroke="#1B3A5C" stroke-width="2.2" stroke-linecap="round"/><rect x="20" y="6" width="24" height="36" rx="6" fill="#D0EFE9" stroke="#1B3A5C" stroke-width="2.2" stroke-linejoin="round"/><path d="M22.4 12 L24.4 9.4 L27.4 10.6 L26.8 14.2 L23.4 14.4 z" fill="#1B3A5C" stroke="#1B3A5C" stroke-width="0" stroke-linejoin="round" stroke-linecap="round"/><path d="M30.4 15 L32.4 12.4 L35.4 13.6 L34.8 17.2 L31.4 17.4 z" fill="#1B3A5C" stroke="#1B3A5C" stroke-width="0" stroke-linejoin="round" stroke-linecap="round"/><path d="M35.4 11 L37.4 8.4 L40.4 9.6 L39.8 13.2 L36.4 13.4 z" fill="#1B3A5C" stroke="#1B3A5C" stroke-width="0" stroke-linejoin="round" stroke-linecap="round"/><path d="M24.4 20 L26.4 17.4 L29.4 18.6 L28.8 22.2 L25.4 22.4 z" fill="#1B3A5C" stroke="#1B3A5C" stroke-width="0" stroke-linejoin="round" stroke-linecap="round"/><path d="M32.4 23 L34.4 20.4 L37.4 21.6 L36.8 25.2 L33.4 25.4 z" fill="#1B3A5C" stroke="#1B3A5C" stroke-width="0" stroke-linejoin="round" stroke-linecap="round"/><path d="M21.4 28 L23.4 25.4 L26.4 26.6 L25.8 30.2 L22.4 30.4 z" fill="#1B3A5C" stroke="#1B3A5C" stroke-width="0" stroke-linejoin="round" stroke-linecap="round"/><path d="M30.4 31 L32.4 28.4 L35.4 29.6 L34.8 33.2 L31.4 33.4 z" fill="#1B3A5C" stroke="#1B3A5C" stroke-width="0" stroke-linejoin="round" stroke-linecap="round"/><path d="M36.4 27 L38.4 24.4 L41.4 25.6 L40.8 29.2 L37.4 29.4 z" fill="#1B3A5C" stroke="#1B3A5C" stroke-width="0" stroke-linejoin="round" stroke-linecap="round"/><path d="M25.4 36 L27.4 33.4 L30.4 34.6 L29.8 38.2 L26.4 38.4 z" fill="#1B3A5C" stroke="#1B3A5C" stroke-width="0" stroke-linejoin="round" stroke-linecap="round"/><path d="M33.4 38 L35.4 35.4 L38.4 36.6 L37.8 40.2 L34.4 40.4 z" fill="#1B3A5C" stroke="#1B3A5C" stroke-width="0" stroke-linejoin="round" stroke-linecap="round"/><circle cx="30" cy="17" r="1.1" fill="#2FB39B"/><circle cx="37" cy="34" r="1.1" fill="#2FB39B"/><circle cx="26" cy="32" r="1.1" fill="#2FB39B"/><path d="M32 6 L32 10" fill="none" stroke="#1B3A5C" stroke-width="1.5" stroke-linecap="round"/><path d="M32 10 L30.08488913886734 7.436340430249812" fill="none" stroke="#1B3A5C" stroke-width="1.5" stroke-linecap="round"/><path d="M32 10 L33.91511086113266 7.436340430249812" fill="none" stroke="#1B3A5C" stroke-width="1.5" stroke-linecap="round"/><path d="M32 38 L32 42" fill="none" stroke="#1B3A5C" stroke-width="1.5" stroke-linecap="round"/><path d="M32 42 L30.08488913886734 39.436340430249814" fill="none" stroke="#1B3A5C" stroke-width="1.5" stroke-linecap="round"/><path d="M32 42 L33.91511086113266 39.436340430249814" fill="none" stroke="#1B3A5C" stroke-width="1.5" stroke-linecap="round"/>
  <text x="32" y="58" text-anchor="middle" fill="#1B3A5C" font-family="Segoe UI, Arial, sans-serif" font-size="15" font-weight="700" letter-spacing="0.4">GAC</text>
</svg>
