<svg xmlns="http://www.w3.org/2000/svg" viewBox="0 0 64 64">
  <!-- OP-MVC — Mechanical Vapour Compression: compressor drives evaporation. Generated by icons/make_icons.py (P4) — do not hand-edit. -->
  <path d="M2 32 L12 32" fill="none" stroke="#1B3A5C" stroke-width="2.2" stroke-linecap="round"/><path d="M52 32 L62 32" fill="none" stroke="#1B3A5C" stroke-width="2.2" stroke-linecap="round"/><rect x="12" y="20" width="40" height="20" rx="4" fill="#FCE7CC" stroke="#1B3A5C" stroke-width="2.2" stroke-linejoin="round"/><circle cx="32" cy="10" r="8" fill="#FFFFFF" stroke="#1B3A5C" stroke-width="2.2"/><path d="M28 14 l8 -8 M28 6 l8 8" fill="none" stroke="#1B3A5C" stroke-width="1.5" stroke-linejoin="round" stroke-linecap="round"/><path d="M18 20 q0 -10 6 -10" fill="none" stroke="#1B3A5C" stroke-width="1.5" stroke-linejoin="round" stroke-linecap="round"/><path d="M40 10 L46 10" fill="none" stroke="#1B3A5C" stroke-width="1.5" stroke-linecap="round"/><path d="M46 10 L43.436340430249814 11.91511086113266" fill="none" stroke="#1B3A5C" stroke-width="1.5" stroke-linecap="round"/><path d="M46 10 L43.436340430249814 8.08488913886734" fill="none" stroke="#1B3A5C" stroke-width="1.5" stroke-linecap="round"/><path d="M46 10 q6 0 6 10" fill="none" stroke="#1B3A5C" stroke-width="1.5" stroke-linejoin="round" stroke-linecap="round"/><path d="M18 30 q3 -3 6 0 q3 3 6 0" fill="none" stroke="#1B3A5C" stroke-width="1.5" stroke-linejoin="round" stroke-linecap="round"/>
  <text x="32" y="58" text-anchor="middle" fill="#1B3A5C" font-family="Segoe UI, Arial, sans-serif" font-size="15" font-weight="700" letter-spacing="0.4">MVC</text>
</svg>
