<svg xmlns="http://www.w3.org/2000/svg" viewBox="0 0 64 64">
<g stroke="#1B3A5C" stroke-width="2.4" stroke-linejoin="round" stroke-linecap="round">
<path d="M2 40 H8" fill="none"/><path d="M56 44 h6" fill="none"/>
<rect x="8" y="26" width="34" height="28" rx="7" fill="#BFE3F5"/>
<path d="M8 33 a7 7 0 0 1 7-7 h27 v7 H8 z" fill="#29ABE2"/>
<rect x="8" y="26" width="34" height="28" rx="7" fill="none"/>
<path d="M25 26 V16 a6 6 0 0 1 6-6 h9" fill="none"/>
<circle cx="47" cy="16" r="8" fill="#29ABE2"/>
<path d="M47 24 v10 a6 6 0 0 1 -1.8 4.3" fill="none"/>
<path d="M42.5 12 l9 8 M51.5 12 l-9 8" fill="none"/>
</g>
<g stroke="#FFFFFF" stroke-width="1.6" stroke-linecap="round" fill="none">
<path d="M12 29.7 h7"/><path d="M23 29.7 h4"/>
</g>
</svg>
