<svg xmlns="http://www.w3.org/2000/svg" viewBox="0 0 64 64">
<g stroke="#1B3A5C" stroke-width="2.4" stroke-linejoin="round" stroke-linecap="round">
<path d="M2 20 H10" fill="none"/><path d="M2 44 H10" fill="none"/><path d="M54 32 H62" fill="none"/>
<path d="M10 14 h16 l12 14 h16 v8 H38 L26 50 H10 a6 6 0 0 1 -6 -6 V20 a6 6 0 0 1 6 -6 z" fill="#BFE3F5"/>
<path d="M38 28 h16 v8 H38 z" fill="#29ABE2"/>
<path d="M10 14 h16 l12 14 h16 v8 H38 L26 50 H10 a6 6 0 0 1 -6 -6 V20 a6 6 0 0 1 6 -6 z" fill="none"/>
</g>
<g stroke="#FFFFFF" stroke-width="1.6" stroke-linecap="round" fill="none">
<path d="M9 19 h8"/><path d="M9 45 h8"/>
</g>
</svg>
