<svg xmlns="http://www.w3.org/2000/svg" viewBox="0 0 64 64">
  <!-- OP-MD — Membrane Distillation: vapour crosses a porous membrane. Generated by icons/make_icons.py (P4) — do not hand-edit. -->
  <path d="M2 14 L11 14" fill="none" stroke="#1B3A5C" stroke-width="2.2" stroke-linecap="round"/><path d="M2 34 L11 34" fill="none" stroke="#1B3A5C" stroke-width="2.2" stroke-linecap="round"/><path d="M53 14 L62 14" fill="none" stroke="#1B3A5C" stroke-width="2.2" stroke-linecap="round"/><path d="M53 34 L62 34" fill="none" stroke="#1B3A5C" stroke-width="2.2" stroke-linecap="round"/><rect x="11" y="8" width="42" height="32" rx="7" fill="#FCE7CC" stroke="#1B3A5C" stroke-width="2.2" stroke-linejoin="round"/><path d="M32 9 L32 39" fill="none" stroke="#F2A03D" stroke-width="2.6" stroke-linecap="round" stroke-dasharray="3 3"/><path d="M16 14 q3 -4 6 0 q3 4 6 0" fill="none" stroke="#1B3A5C" stroke-width="1.5" stroke-linejoin="round" stroke-linecap="round"/><path d="M16 22 q3 -4 6 0 q3 4 6 0" fill="none" stroke="#1B3A5C" stroke-width="1.5" stroke-linejoin="round" stroke-linecap="round"/><path d="M40 18 q3 5 0 6 q-4 -1 0 -6 z" fill="#F2A03D" stroke="#1B3A5C" stroke-width="1.5" stroke-linejoin="round" stroke-linecap="round"/><path d="M46 26 q3 5 0 6 q-4 -1 0 -6 z" fill="#F2A03D" stroke="#1B3A5C" stroke-width="1.5" stroke-linejoin="round" stroke-linecap="round"/>
  <text x="32" y="58" text-anchor="middle" fill="#1B3A5C" font-family="Segoe UI, Arial, sans-serif" font-size="15" font-weight="700" letter-spacing="0.4">MD</text>
</svg>
