<svg xmlns="http://www.w3.org/2000/svg" viewBox="0 0 64 64">
  <!-- OP-MED — Multi-Effect Distillation: vapour reused effect to effect. Generated by icons/make_icons.py (P4) — do not hand-edit. -->
  <path d="M2 30 L12 30" fill="none" stroke="#1B3A5C" stroke-width="2.2" stroke-linecap="round"/><path d="M52 30 L62 30" fill="none" stroke="#1B3A5C" stroke-width="2.2" stroke-linecap="round"/><rect x="12" y="16" width="12" height="24" rx="2" fill="#FCE7CC" stroke="#1B3A5C" stroke-width="2.2" stroke-linejoin="round"/><path d="M18 15 L18 7" fill="none" stroke="#F2A03D" stroke-width="1.5" stroke-linecap="round"/><path d="M18 7 L19.55602757467029 9.082973400422027" fill="none" stroke="#F2A03D" stroke-width="1.5" stroke-linecap="round"/><path d="M18 7 L16.44397242532971 9.082973400422027" fill="none" stroke="#F2A03D" stroke-width="1.5" stroke-linecap="round"/><path d="M15 34 q3 -3 6 0" fill="none" stroke="#1B3A5C" stroke-width="1.5" stroke-linejoin="round" stroke-linecap="round"/><rect x="26" y="16" width="12" height="24" rx="2" fill="#FCE7CC" stroke="#1B3A5C" stroke-width="2.2" stroke-linejoin="round"/><path d="M32 15 L32 7" fill="none" stroke="#F2A03D" stroke-width="1.5" stroke-linecap="round"/><path d="M32 7 L33.55602757467029 9.082973400422027" fill="none" stroke="#F2A03D" stroke-width="1.5" stroke-linecap="round"/><path d="M32 7 L30.44397242532971 9.082973400422027" fill="none" stroke="#F2A03D" stroke-width="1.5" stroke-linecap="round"/><path d="M29 34 q3 -3 6 0" fill="none" stroke="#1B3A5C" stroke-width="1.5" stroke-linejoin="round" stroke-linecap="round"/><rect x="40" y="16" width="12" height="24" rx="2" fill="#FCE7CC" stroke="#1B3A5C" stroke-width="2.2" stroke-linejoin="round"/><path d="M46 15 L46 7" fill="none" stroke="#F2A03D" stroke-width="1.5" stroke-linecap="round"/><path d="M46 7 L47.55602757467029 9.082973400422027" fill="none" stroke="#F2A03D" stroke-width="1.5" stroke-linecap="round"/><path d="M46 7 L44.44397242532971 9.082973400422027" fill="none" stroke="#F2A03D" stroke-width="1.5" stroke-linecap="round"/><path d="M43 34 q3 -3 6 0" fill="none" stroke="#1B3A5C" stroke-width="1.5" stroke-linejoin="round" stroke-linecap="round"/>
  <text x="32" y="58" text-anchor="middle" fill="#1B3A5C" font-family="Segoe UI, Arial, sans-serif" font-size="15" font-weight="700" letter-spacing="0.4">MED</text>
</svg>
