<svg xmlns="http://www.w3.org/2000/svg" viewBox="0 0 64 64">
  <!-- OP-PPT — Chemical Precipitation: reagent dosing, wet sludge out. Generated by icons/make_icons.py (P4) — do not hand-edit. -->
  <path d="M2 16 L12 16" fill="none" stroke="#1B3A5C" stroke-width="2.2" stroke-linecap="round"/><path d="M52 16 L62 16" fill="none" stroke="#1B3A5C" stroke-width="2.2" stroke-linecap="round"/><path d="M32 50 L32 50" fill="none" stroke="#1B3A5C" stroke-width="2.2" stroke-linecap="round"/><rect x="12" y="10" width="40" height="20" rx="2" fill="#D0EFE9" stroke="#1B3A5C" stroke-width="2.2" stroke-linejoin="round"/><path d="M32 2 L32 6" fill="none" stroke="#1B3A5C" stroke-width="2.2" stroke-linecap="round"/><path d="M32 6 L32 10" fill="none" stroke="#2FB39B" stroke-width="1.5" stroke-linecap="round"/><path d="M32 10 L30.20458356768813 7.596569153359199" fill="none" stroke="#2FB39B" stroke-width="1.5" stroke-linecap="round"/><path d="M32 10 L33.79541643231187 7.596569153359199" fill="none" stroke="#2FB39B" stroke-width="1.5" stroke-linecap="round"/><path d="M12 30 h40 l-14 14 h-12 z" fill="#FFFFFF" stroke="#1B3A5C" stroke-width="2.2" stroke-linejoin="round" stroke-linecap="round"/><circle cx="26" cy="34" r="2.1" fill="#2FB39B" stroke="#1B3A5C" stroke-width="1.2"/><circle cx="33" cy="33" r="2.1" fill="#2FB39B" stroke="#1B3A5C" stroke-width="1.2"/><circle cx="30" cy="39" r="2.1" fill="#2FB39B" stroke="#1B3A5C" stroke-width="1.2"/><circle cx="37" cy="37" r="2.1" fill="#2FB39B" stroke="#1B3A5C" stroke-width="1.2"/><circle cx="20" cy="20" r="1.5" fill="#1B3A5C"/><circle cx="27" cy="17" r="1.5" fill="#1B3A5C"/><circle cx="43" cy="21" r="1.5" fill="#1B3A5C"/><path d="M32 44 L32 50" fill="none" stroke="#1B3A5C" stroke-width="2.2" stroke-linecap="round"/>
  <text x="32" y="58" text-anchor="middle" fill="#1B3A5C" font-family="Segoe UI, Arial, sans-serif" font-size="15" font-weight="700" letter-spacing="0.4">PPT</text>
</svg>
