<svg xmlns="http://www.w3.org/2000/svg" viewBox="0 0 64 64">
  <!-- OP-PRO — Pressure-Retarded Osmosis: osmotic power via turbine. Generated by icons/make_icons.py (P4) — do not hand-edit. -->
  <path d="M2 18 L11 18" fill="none" stroke="#1B3A5C" stroke-width="2.2" stroke-linecap="round"/><path d="M2 34 L11 34" fill="none" stroke="#1B3A5C" stroke-width="2.2" stroke-linecap="round"/><path d="M53 34 L62 34" fill="none" stroke="#1B3A5C" stroke-width="2.2" stroke-linecap="round"/><rect x="11" y="12" width="42" height="28" rx="6" fill="#CFEAF9" stroke="#1B3A5C" stroke-width="2.2" stroke-linejoin="round"/><rect x="31" y="12" width="2.5" height="28" rx="0" fill="#29ABE2" stroke="#1B3A5C" stroke-width="1.5" stroke-linejoin="round"/><path d="M20 32 q12 -10 22 -3" fill="none" stroke="#1B3A5C" stroke-width="1.5" stroke-linejoin="round" stroke-linecap="round"/><circle cx="45" cy="12" r="8" fill="#FFFFFF" stroke="#1B3A5C" stroke-width="2.2"/><path d="M45 5 L45 19" fill="none" stroke="#1B3A5C" stroke-width="1.5" stroke-linecap="round"/><path d="M39 8.5 L51 15.5" fill="none" stroke="#1B3A5C" stroke-width="1.5" stroke-linecap="round"/><path d="M39 15.5 L51 8.5" fill="none" stroke="#1B3A5C" stroke-width="1.5" stroke-linecap="round"/><circle cx="45" cy="12" r="2" fill="#1B3A5C" stroke="#1B3A5C" stroke-width="0"/><path d="M52 6 L56 9" fill="none" stroke="#1B3A5C" stroke-width="1.5" stroke-linecap="round"/><path d="M56 9 L52.80000582752025 8.993892947056016" fill="none" stroke="#1B3A5C" stroke-width="1.5" stroke-linecap="round"/><path d="M56 9 L55.098138860879445 5.929715569243759" fill="none" stroke="#1B3A5C" stroke-width="1.5" stroke-linecap="round"/>
  <text x="32" y="58" text-anchor="middle" fill="#1B3A5C" font-family="Segoe UI, Arial, sans-serif" font-size="15" font-weight="700" letter-spacing="0.4">PRO</text>
</svg>
