<svg xmlns="http://www.w3.org/2000/svg" viewBox="0 0 64 64">
<g stroke="#1B3A5C" stroke-width="2.4" stroke-linejoin="round" stroke-linecap="round">
<path d="M2 34 H8" fill="none"/><path d="M56 34 H62" fill="none"/><path d="M32 56 v6" fill="none"/>
<path d="M40 6 h10 l-3.5 6" fill="none"/>
<path d="M44 15 c0 -2.4 2 -4.4 2 -4.4 s2 2 2 4.4 a2 2.2 0 0 1 -4 0 z" fill="#29ABE2"/>
<rect x="8" y="20" width="48" height="36" rx="8" fill="#BFE3F5"/>
<path d="M8 28 a8 8 0 0 1 8 -8 h32 a8 8 0 0 1 8 8 v1 H8 z" fill="#29ABE2"/>
<rect x="8" y="20" width="48" height="36" rx="8" fill="none"/>
</g>
<g fill="#1B3A5C">
<circle cx="22" cy="40" r="1.8"/><circle cx="32" cy="44" r="1.8"/><circle cx="42" cy="40" r="1.8"/>
<circle cx="27" cy="50" r="1.8"/><circle cx="37" cy="50" r="1.8"/>
</g>
<g stroke="#FFFFFF" stroke-width="1.6" stroke-linecap="round" fill="none">
<path d="M13 24.5 h9"/><path d="M26 24.5 h5"/>
</g>
</svg>
