<svg xmlns="http://www.w3.org/2000/svg" viewBox="0 0 64 64">
  <!-- OP-RPB — Rotating Packed Bed: HiGee rotor intensifies absorption. Generated by icons/make_icons.py (P4) — do not hand-edit. -->
  <path d="M2 24 L12 24" fill="none" stroke="#1B3A5C" stroke-width="2.2" stroke-linecap="round"/><path d="M52 24 L62 24" fill="none" stroke="#1B3A5C" stroke-width="2.2" stroke-linecap="round"/><path d="M32 2 L32 6" fill="none" stroke="#1B3A5C" stroke-width="2.2" stroke-linecap="round"/><circle cx="32" cy="24" r="20" fill="#FBDCDA" stroke="#1B3A5C" stroke-width="2.2"/><circle cx="32" cy="24" r="7" fill="#FFFFFF" stroke="#1B3A5C" stroke-width="2.2"/><path d="M39.5 24.0 L50.0 24.0" fill="none" stroke="#1B3A5C" stroke-width="1.5" stroke-linecap="round"/><path d="M37.30330085889911 29.303300858899107 L44.72792206135786 36.72792206135786" fill="none" stroke="#1B3A5C" stroke-width="1.5" stroke-linecap="round"/><path d="M32.0 31.5 L32.0 42.0" fill="none" stroke="#1B3A5C" stroke-width="1.5" stroke-linecap="round"/><path d="M26.696699141100893 29.303300858899107 L19.272077938642145 36.72792206135786" fill="none" stroke="#1B3A5C" stroke-width="1.5" stroke-linecap="round"/><path d="M24.5 24.0 L14.0 24.000000000000004" fill="none" stroke="#1B3A5C" stroke-width="1.5" stroke-linecap="round"/><path d="M26.696699141100893 18.696699141100893 L19.27207793864214 11.272077938642145" fill="none" stroke="#1B3A5C" stroke-width="1.5" stroke-linecap="round"/><path d="M32.0 16.5 L31.999999999999996 6.0" fill="none" stroke="#1B3A5C" stroke-width="1.5" stroke-linecap="round"/><path d="M37.30330085889911 18.696699141100893 L44.72792206135785 11.272077938642141" fill="none" stroke="#1B3A5C" stroke-width="1.5" stroke-linecap="round"/><path d="M44 9 a20 20 0 0 1 6 9" fill="none" stroke="#1B3A5C" stroke-width="2.2" stroke-linejoin="round" stroke-linecap="round"/><path d="M49.4 15.5 L50.6 19.5" fill="none" stroke="#1B3A5C" stroke-width="1.5" stroke-linecap="round"/><path d="M50.6 19.5 L48.02899432141498 17.59476253430614" fill="none" stroke="#1B3A5C" stroke-width="1.5" stroke-linecap="round"/><path d="M50.6 19.5 L51.69768136522573 16.49415642116291" fill="none" stroke="#1B3A5C" stroke-width="1.5" stroke-linecap="round"/>
  <text x="32" y="58" text-anchor="middle" fill="#1B3A5C" font-family="Segoe UI, Arial, sans-serif" font-size="15" font-weight="700" letter-spacing="0.4">RPB</text>
</svg>
