<svg xmlns="http://www.w3.org/2000/svg" viewBox="0 0 64 64">
<g stroke="#1B3A5C" stroke-width="2.4" stroke-linejoin="round" stroke-linecap="round">
<path d="M2 32 H8" fill="none"/><path d="M56 32 H62" fill="none"/>
<circle cx="32" cy="32" r="24" fill="#BFE3F5"/>
<circle cx="32" cy="32" r="13.5" fill="#29ABE2"/>
<circle cx="32" cy="32" r="5" fill="#FFFFFF"/>
<circle cx="32" cy="32" r="24" fill="none"/>
<path d="M32 8 v10 M32 46 v10 M8 32 h10 M46 32 h10 M15 15 l7 7 M49 15 l-7 7 M15 49 l7 -7 M49 49 l-7 -7" fill="none" stroke-width="2"/>
</g>
<path d="M50 6 a22 22 0 0 1 7 9 l-6.4 -1 4 -5.4 z" fill="#29ABE2" stroke="#1B3A5C" stroke-width="1.6" stroke-linejoin="round"/>
<g stroke="#FFFFFF" stroke-width="1.6" stroke-linecap="round" fill="none">
<path d="M25 25 a9 9 0 0 1 6 -2.5"/>
</g>
</svg>
