<svg xmlns="http://www.w3.org/2000/svg" viewBox="0 0 64 64">
  <!-- OP-RO — Reverse Osmosis: high pressure, total salt rejection. Generated by icons/make_icons.py (P4) — do not hand-edit. -->
  <path d="M2 24 L11 24" fill="none" stroke="#1B3A5C" stroke-width="2.2" stroke-linecap="round"/><path d="M53 15 L62 15" fill="none" stroke="#1B3A5C" stroke-width="2.2" stroke-linecap="round"/><path d="M53 33 L62 33" fill="none" stroke="#1B3A5C" stroke-width="2.2" stroke-linecap="round"/><rect x="11" y="8" width="42" height="32" rx="7" fill="#CFEAF9" stroke="#1B3A5C" stroke-width="2.2" stroke-linejoin="round"/><rect x="35" y="8" width="4" height="32" rx="0" fill="#29ABE2" stroke="#1B3A5C" stroke-width="1.5" stroke-linejoin="round"/><path d="M14 18 l5 6 -5 6" fill="none" stroke="#1B3A5C" stroke-width="2.2" stroke-linejoin="round" stroke-linecap="round"/><path d="M20 18 l5 6 -5 6" fill="none" stroke="#1B3A5C" stroke-width="2.2" stroke-linejoin="round" stroke-linecap="round"/><circle cx="30" cy="15" r="1.7" fill="#1B3A5C"/><circle cx="30" cy="24" r="1.7" fill="#1B3A5C"/><circle cx="30" cy="33" r="1.7" fill="#1B3A5C"/><circle cx="33" cy="19.5" r="1.7" fill="#1B3A5C"/><circle cx="33" cy="28.5" r="1.7" fill="#1B3A5C"/><path d="M41 24 L50 24" fill="none" stroke="#1B3A5C" stroke-width="1.5" stroke-linecap="round"/><path d="M50 24 L47.436340430249814 25.91511086113266" fill="none" stroke="#1B3A5C" stroke-width="1.5" stroke-linecap="round"/><path d="M50 24 L47.436340430249814 22.08488913886734" fill="none" stroke="#1B3A5C" stroke-width="1.5" stroke-linecap="round"/>
  <text x="32" y="58" text-anchor="middle" fill="#1B3A5C" font-family="Segoe UI, Arial, sans-serif" font-size="15" font-weight="700" letter-spacing="0.4">RO</text>
</svg>
