<svg xmlns="http://www.w3.org/2000/svg" viewBox="0 0 64 64">
  <!-- OP-SX — Solvent Extraction: mixer plus settler, counter-current. Generated by icons/make_icons.py (P4) — do not hand-edit. -->
  <path d="M2 12 L10 12" fill="none" stroke="#1B3A5C" stroke-width="2.2" stroke-linecap="round"/><path d="M2 34 L10 34" fill="none" stroke="#1B3A5C" stroke-width="2.2" stroke-linecap="round"/><path d="M54 14 L62 14" fill="none" stroke="#1B3A5C" stroke-width="2.2" stroke-linecap="round"/><path d="M54 34 L62 34" fill="none" stroke="#1B3A5C" stroke-width="2.2" stroke-linecap="round"/><rect x="9" y="10" width="18" height="30" rx="8" fill="#D0EFE9" stroke="#1B3A5C" stroke-width="2.2" stroke-linejoin="round"/><path d="M18 10 L18 3" fill="none" stroke="#1B3A5C" stroke-width="2.2" stroke-linecap="round"/><path d="M13 22 h10 M15 27 h6" fill="none" stroke="#1B3A5C" stroke-width="1.5" stroke-linejoin="round" stroke-linecap="round"/><rect x="33" y="12" width="21" height="26" rx="3" fill="#FFFFFF" stroke="#1B3A5C" stroke-width="2.2" stroke-linejoin="round"/><path d="M33 25 L54 25" fill="none" stroke="#2FB39B" stroke-width="2.6" stroke-linecap="round"/><circle cx="39" cy="18" r="1.6" fill="#1B3A5C"/><circle cx="47" cy="20" r="1.6" fill="#1B3A5C"/><circle cx="43" cy="31" r="1.6" fill="#1B3A5C"/><circle cx="49" cy="32" r="1.6" fill="#1B3A5C"/><path d="M27 20 L33 20" fill="none" stroke="#1B3A5C" stroke-width="1.5" stroke-linecap="round"/><path d="M33 20 L30.436340430249814 21.91511086113266" fill="none" stroke="#1B3A5C" stroke-width="1.5" stroke-linecap="round"/><path d="M33 20 L30.436340430249814 18.08488913886734" fill="none" stroke="#1B3A5C" stroke-width="1.5" stroke-linecap="round"/><path d="M33 30 L27 30" fill="none" stroke="#1B3A5C" stroke-width="1.5" stroke-linecap="round"/><path d="M27 30 L29.563659569750186 28.08488913886734" fill="none" stroke="#1B3A5C" stroke-width="1.5" stroke-linecap="round"/><path d="M27 30 L29.56365956975019 31.91511086113266" fill="none" stroke="#1B3A5C" stroke-width="1.5" stroke-linecap="round"/>
  <text x="32" y="58" text-anchor="middle" fill="#1B3A5C" font-family="Segoe UI, Arial, sans-serif" font-size="15" font-weight="700" letter-spacing="0.4">SX</text>
</svg>
