<svg xmlns="http://www.w3.org/2000/svg" viewBox="0 0 64 64">
<g stroke="#1B3A5C" stroke-width="2.4" stroke-linejoin="round" stroke-linecap="round">
<path d="M2 34 H8" fill="none"/><path d="M56 26 H62" fill="none"/><path d="M56 44 H62" fill="none"/>
<path d="M32 6 v14" fill="none"/>
<rect x="8" y="20" width="48" height="32" rx="8" fill="#FFFFFF"/>
<path d="M8 36 h48 v8 a8 8 0 0 1 -8 8 H16 a8 8 0 0 1 -8 -8 z" fill="#BFE3F5"/>
<path d="M8 28 h48 v8 H8 z" fill="#29ABE2"/>
<rect x="8" y="20" width="48" height="32" rx="8" fill="none"/>
<path d="M26 24 h12" fill="none"/>
<path d="M32 20 v8" fill="none"/>
<path d="M25 30.5 l7 5 7 -5" fill="none"/>
</g>
<g stroke="#FFFFFF" stroke-width="1.6" stroke-linecap="round" fill="none">
<path d="M13 31.7 h8"/><path d="M25 31.7 h4"/>
</g>
</svg>
