<svg xmlns="http://www.w3.org/2000/svg" viewBox="0 0 64 64">
  <!-- OP-UF — Ultrafiltration: colloids blocked, salts pass. Generated by icons/make_icons.py (P4) — do not hand-edit. -->
  <path d="M2 24 L11 24" fill="none" stroke="#1B3A5C" stroke-width="2.2" stroke-linecap="round"/><path d="M53 15 L62 15" fill="none" stroke="#1B3A5C" stroke-width="2.2" stroke-linecap="round"/><path d="M53 33 L62 33" fill="none" stroke="#1B3A5C" stroke-width="2.2" stroke-linecap="round"/><rect x="11" y="8" width="42" height="32" rx="7" fill="#CFEAF9" stroke="#1B3A5C" stroke-width="2.2" stroke-linejoin="round"/><rect x="35" y="8" width="3" height="32" rx="0" fill="#29ABE2" stroke="#1B3A5C" stroke-width="1.5" stroke-linejoin="round"/><path d="M24 14 q4 -3 7 1 q3 4 -1 6 q-5 2 -7 -2 z" fill="#1B3A5C" stroke="#1B3A5C" stroke-width="0" stroke-linejoin="round" stroke-linecap="round"/><path d="M25 28 q5 -3 8 2 q2 5 -3 6 q-6 1 -6 -4 z" fill="#1B3A5C" stroke="#1B3A5C" stroke-width="0" stroke-linejoin="round" stroke-linecap="round"/><circle cx="43" cy="15" r="1.1" fill="#1B3A5C"/><circle cx="47" cy="22" r="1.1" fill="#1B3A5C"/><circle cx="42" cy="29" r="1.1" fill="#1B3A5C"/><circle cx="46" cy="34" r="1.1" fill="#1B3A5C"/><path d="M15 24 L22 24" fill="none" stroke="#1B3A5C" stroke-width="1.5" stroke-linecap="round"/><path d="M22 24 L19.436340430249814 25.91511086113266" fill="none" stroke="#1B3A5C" stroke-width="1.5" stroke-linecap="round"/><path d="M22 24 L19.436340430249814 22.08488913886734" fill="none" stroke="#1B3A5C" stroke-width="1.5" stroke-linecap="round"/>
  <text x="32" y="58" text-anchor="middle" fill="#1B3A5C" font-family="Segoe UI, Arial, sans-serif" font-size="15" font-weight="700" letter-spacing="0.4">UF</text>
</svg>
