<svg xmlns="http://www.w3.org/2000/svg" viewBox="0 0 64 64">
  <!-- OP-UVAOP — UV / Advanced Oxidation: lamp dose destroys micropollutants. Generated by icons/make_icons.py (P4) — do not hand-edit. -->
  <path d="M2 24 L11 24" fill="none" stroke="#1B3A5C" stroke-width="2.2" stroke-linecap="round"/><path d="M53 24 L62 24" fill="none" stroke="#1B3A5C" stroke-width="2.2" stroke-linecap="round"/><rect x="11" y="10" width="42" height="28" rx="4" fill="#FBDCDA" stroke="#1B3A5C" stroke-width="2.2" stroke-linejoin="round"/><rect x="29" y="16" width="6" height="16" rx="3" fill="#E5564E" stroke="#1B3A5C" stroke-width="1.5" stroke-linejoin="round"/><path d="M38.46715672757901 26.67878402655563 L43.54849415639109 28.78354290456362" fill="none" stroke="#E5564E" stroke-width="1.5" stroke-linecap="round"/><path d="M34.67878402655563 30.467156727579006 L36.783542904563625 35.54849415639109" fill="none" stroke="#E5564E" stroke-width="1.5" stroke-linecap="round"/><path d="M29.32121597344437 30.467156727579006 L27.21645709543638 35.54849415639109" fill="none" stroke="#E5564E" stroke-width="1.5" stroke-linecap="round"/><path d="M25.532843272420994 26.67878402655563 L20.451505843608913 28.783542904563625" fill="none" stroke="#E5564E" stroke-width="1.5" stroke-linecap="round"/><path d="M25.53284327242099 21.32121597344437 L20.451505843608913 19.21645709543638" fill="none" stroke="#E5564E" stroke-width="1.5" stroke-linecap="round"/><path d="M29.321215973444367 17.532843272420994 L27.216457095436372 12.451505843608919" fill="none" stroke="#E5564E" stroke-width="1.5" stroke-linecap="round"/><path d="M34.67878402655563 17.532843272420994 L36.783542904563625 12.451505843608917" fill="none" stroke="#E5564E" stroke-width="1.5" stroke-linecap="round"/><path d="M38.46715672757901 21.321215973444367 L43.54849415639108 19.21645709543637" fill="none" stroke="#E5564E" stroke-width="1.5" stroke-linecap="round"/><circle cx="17" cy="18" r="1.4" fill="#1B3A5C"/><circle cx="20" cy="30" r="1.4" fill="#1B3A5C"/><circle cx="46" cy="20" r="1.4" fill="#1B3A5C"/><circle cx="44" cy="31" r="1.4" fill="#1B3A5C"/>
  <text x="32" y="58" text-anchor="middle" fill="#1B3A5C" font-family="Segoe UI, Arial, sans-serif" font-size="11" font-weight="700" letter-spacing="0.4">UVAOP</text>
</svg>
