<svg xmlns="http://www.w3.org/2000/svg" viewBox="0 0 64 64">
<g stroke="#1B3A5C" stroke-width="2.4" stroke-linejoin="round" stroke-linecap="round">
<path d="M2 32 H10" fill="none"/><path d="M54 22 H62" fill="none"/><path d="M54 42 H62" fill="none"/>
<rect x="10" y="16" width="44" height="32" rx="8" fill="#BFE3F5"/>
<path d="M10 24 a8 8 0 0 1 8-8 h3 v32 h-3 a8 8 0 0 1 -8-8 z" fill="#29ABE2"/>
<rect x="26" y="23" width="24" height="4.6" rx="2.3" fill="#FFFFFF"/>
<rect x="26" y="30" width="24" height="4.6" rx="2.3" fill="#FFFFFF"/>
<rect x="26" y="37" width="24" height="4.6" rx="2.3" fill="#FFFFFF"/>
<rect x="10" y="16" width="44" height="32" rx="8" fill="none"/>
</g>
<g fill="#1B3A5C">
<circle cx="24" cy="20.5" r="2.4"/><circle cx="23.4" cy="44" r="2.4"/>
</g>
<g stroke="#FFFFFF" stroke-width="1.6" stroke-linecap="round" fill="none">
<path d="M14 24 v8"/><path d="M18 21 v14"/>
</g>
</svg>
